<svg width="92" height="92" viewBox="0 0 92 92" fill="none" xmlns="http://www.w3.org/2000/svg">
<path d="M62.5312 43.125H48.875V29.4688C48.875 29.0734 48.5516 28.75 48.1562 28.75H43.8438C43.4484 28.75 43.125 29.0734 43.125 29.4688V43.125H29.4688C29.0734 43.125 28.75 43.4484 28.75 43.8438V48.1562C28.75 48.5516 29.0734 48.875 29.4688 48.875H43.125V62.5312C43.125 62.9266 43.4484 63.25 43.8438 63.25H48.1562C48.5516 63.25 48.875 62.9266 48.875 62.5312V48.875H62.5312C62.9266 48.875 63.25 48.5516 63.25 48.1562V43.8438C63.25 43.4484 62.9266 43.125 62.5312 43.125Z" fill="#BBBBBB"/>
<path d="M46 5.75C23.7727 5.75 5.75 23.7727 5.75 46C5.75 68.2273 23.7727 86.25 46 86.25C68.2273 86.25 86.25 68.2273 86.25 46C86.25 23.7727 68.2273 5.75 46 5.75ZM46 79.4219C27.5461 79.4219 12.5781 64.4539 12.5781 46C12.5781 27.5461 27.5461 12.5781 46 12.5781C64.4539 12.5781 79.4219 27.5461 79.4219 46C79.4219 64.4539 64.4539 79.4219 46 79.4219Z" fill="#BBBBBB"/>
</svg>
